<svg width="230" height="116" viewBox="0 0 230 116" fill="none" xmlns="http://www.w3.org/2000/svg">
<path d="M141.238 4.1554C140.543 9.90273 145.677 16.5534 136.673 21.4651C139.655 21.8942 141.363 22.1313 142.513 22.3007C143.048 28.0706 143.549 33.4792 144.05 38.8878C143.719 38.9556 143.389 39.0233 143.059 39.0911C142.274 35.4552 141.67 31.7629 140.612 28.2174C140.213 26.885 138.745 25.8688 137.766 24.7058C136.878 25.7446 135.58 26.6592 135.17 27.8561C134.077 31.108 133.36 34.4842 132.085 39.3733C130.571 29.7982 135.409 11.6981 141.238 4.1554Z" fill="white"/>
<path d="M105.235 33.7448C106.7 33.5149 108.174 33.2973 109.639 33.0674C109.546 33.9888 109.454 34.9101 109.362 35.8315C106.255 36.8071 103.159 37.7951 99.2241 39.0408C99.0145 27.673 98.8176 16.7489 98.6079 5.15407C101.895 5.34232 105.194 5.53169 108.481 5.71994C108.289 6.38179 108.098 7.03242 107.905 7.69428C105.138 7.56869 102.639 8.99008 101.6 11.2478C100.547 13.5381 101.425 15.7353 101.599 16.161C103.599 16.642 105.597 17.1343 107.585 17.6142C106.751 17.9516 103.795 19.2485 102.393 22.3895C100.794 26.0104 101.891 30.5894 105.235 33.7448Z" fill="white"/>
<path d="M63.831 30.0214C63.9788 30.6807 64.327 31.7864 65.1987 32.8285C66.2932 34.1147 68.4027 35.5215 69.6347 34.8561C70.6395 34.3205 70.6738 32.6079 70.6667 31.502C70.6827 28.9413 70.3237 26.5025 67.8655 22.6617C65.2404 18.5659 64.1489 14.5374 65.5832 9.88422C65.9904 8.57498 67.1685 5.44083 69.3181 5.17543C71.1626 4.93999 73.4278 6.85959 74.3881 9.98609C73.9823 9.75497 70.8807 8.0755 68.6607 9.37224C65.8756 11.0009 66.1929 16.314 68.3094 19.1398C68.6215 19.5643 68.7644 19.5823 69.6919 20.6135C69.6919 20.6135 71.5835 22.7307 72.7937 24.5857C74.8804 27.7858 75.8005 35.5036 72.3391 37.5114C70.5831 38.5283 68.1332 37.8236 66.6412 36.8365C64.4956 35.3999 63.395 32.7452 63.831 30.0214Z" fill="white"/>
<path d="M86.1351 38.714C85.6578 30.625 85.8774 25.2822 86.3112 21.5652C86.3112 21.5652 86.7394 17.8816 85.4578 12.4076C85.1997 11.3239 84.8345 10.0511 83.6989 9.10987C82.1248 7.82226 80.0683 7.97777 79.3011 8.08109C78.9876 7.46901 78.6741 6.85694 78.3587 6.256C82.4389 5.37886 86.5174 4.51287 90.5976 3.63573C90.9222 4.11228 91.2355 4.58699 91.5582 5.07468C87.4099 7.88619 87.8116 10.8816 88.5748 15.3095C89.8879 22.9517 88.722 31.0006 88.5982 38.8882C87.7653 38.832 86.9437 38.7776 86.1351 38.714Z" fill="white"/>
<path d="M152 0.791521C155.987 6.42887 158.13 12.1631 156.319 19.466C154.901 25.1994 156.07 31.5492 156.09 37.6337C155.359 37.6276 154.632 37.6322 153.901 37.6261C153.979 31.4393 154.349 25.2313 154.027 19.0642C153.723 12.9509 152.701 6.87442 152 0.791521Z" fill="white"/>
<path d="M163.908 2.22784e-05C164.114 12.6154 164.306 25.2235 164.512 37.8389C163.848 37.9301 163.188 38.0322 162.524 38.1234C160.832 32.1877 159.133 26.2661 157.441 20.3304C157.485 19.4275 157.533 18.5354 157.588 17.6291C159.044 19.6694 160.497 21.6989 161.953 23.7392C161.617 20.3138 161.478 16.1625 161.893 11.4685C162.273 7.0348 163.052 3.17409 163.908 2.22784e-05Z" fill="white"/>
<path d="M117.679 9.94338C118.373 9.81003 119.43 9.72295 120.127 10.3185C121.796 11.7504 119.724 15.5683 121.348 17.0855C121.811 17.5225 122.779 17.9526 125.081 17.3293C125.228 18.0409 125.315 19.0655 124.729 19.8163C123.822 20.9854 122.146 20.3187 120.999 21.2218C119.502 22.4008 120.153 25.2809 120.522 28.0041C120.87 30.501 120.968 34.0469 119.827 38.5831C118.994 38.5304 118.172 38.4653 117.338 38.4126C117.46 28.9186 117.569 19.425 117.679 9.94338Z" fill="white"/>
<path d="M127.467 5.32491C123.875 7.51403 120.293 10.9218 115.398 5.77332C120.211 5.59449 123.833 5.45992 127.467 5.32491Z" fill="white"/>
<mask id="mask0" mask-type="alpha" maskUnits="userSpaceOnUse" x="0" y="43" width="230" height="73">
<path d="M99.9235 54.0692C99.3499 56.5716 98.467 60.2167 97.2168 64.5959C94.8452 72.901 94.0202 73.8266 93.5176 73.7819C93.176 73.75 92.7249 73.2329 92.3382 70.9348C91.7324 67.9026 91.1266 64.8704 90.5208 61.8381C90.2115 57.344 89.8312 56.3546 89.5284 56.3418C89.1997 56.329 88.8194 57.4717 88.6841 58.3335C88.4521 59.8145 88.8388 61.0019 88.8839 61.1551C89.7024 63.7788 88.1041 74.05 88.2652 82.4701C88.4328 91.1327 86.0225 99.2718 83.928 107.5C83.8635 107.749 83.5413 107.928 82.8711 108.643C82.2717 107.124 81.4275 105.955 81.4081 104.768C81.3308 100.644 81.3888 96.5077 81.6788 92.3966C82.001 87.8579 82.8388 83.351 83.116 78.8058C83.696 69.2687 84.0569 59.7188 84.5209 50.1816C84.5402 49.8433 84.5015 48.873 84.8238 47.6601C85.3265 45.745 86.3576 44.3533 87.1438 43.4915C89.6057 44.7874 90.6304 46.262 91.1137 47.3409C91.8935 49.0836 92.3769 52.2754 93.0471 54.7204C93.3113 55.6843 93.8462 56.5844 95.09 57.5739C95.625 56.2844 96.1728 55.0012 96.6883 53.699C97.8935 50.6476 99.0019 47.5515 100.349 44.5704C100.671 43.8618 101.792 43.5107 102.546 43C102.94 43.7852 103.661 44.5576 103.687 45.3556C104.074 58.0782 105.363 70.7688 103.964 83.5489C103.191 90.59 103.7 97.7716 103.629 104.883C103.616 105.994 103.629 107.105 103.629 108.298C100.736 108.254 99.8977 106.97 99.7946 104.692C99.4337 96.7247 99.7431 88.8856 100.935 80.9061C100.935 80.9061 102.521 71.1582 101.554 55.18C101.502 54.2927 101.361 53.2457 100.929 53.15C100.613 53.0862 100.22 53.5905 99.9235 54.0692Z" fill="#FAFF00"/>
<path d="M70.8661 51.0429C70.3505 50.7748 69.822 50.5322 69.3258 50.2386C65.7168 48.1192 63.7448 48.7831 62.0369 52.5048C57.8544 61.627 57.4226 71.477 57.139 81.161C57.023 85.138 59.6331 89.3065 61.5085 93.1558C62.0112 94.19 64.3505 94.3496 65.8457 94.9049C66.1099 93.558 66.5288 92.2238 66.5997 90.8705C66.6899 89.1852 66.3935 87.4808 66.4515 85.7955C66.5159 83.8995 66.0326 82.7824 64.0219 81.9142C62.5332 81.2759 61.5858 79.4182 60.342 78.0457C66.1937 75.8881 71.3172 78.6905 71.7425 84.257C72.0196 87.8382 71.7554 91.4578 71.9101 95.0518C72.0648 98.7479 72.5223 102.425 72.6512 106.121C72.6834 107.066 71.9745 108.036 71.6136 109C71.0272 108.151 70.1185 107.366 69.9187 106.434C69.5836 104.895 69.6931 103.268 69.6351 101.672C69.5449 99.1756 68.3978 98.3713 65.8779 98.9522C59.82 100.357 59.6009 100.376 57.1584 94.8092C50.0435 78.5756 50.2368 62.5207 59.0015 46.8808C59.4784 46.0318 61.1411 45.2147 62.1014 45.3679C65.749 45.936 68.7136 47.8958 70.8661 51.0429ZM56.5783 61.0461C58.3184 56.6542 60.0649 52.2558 61.7856 47.9086C58.8211 47.6788 55.0445 55.6009 56.5783 61.0461Z" fill="#FAFF00"/>
<path d="M21.7607 107.785C22.5019 104.977 23.1721 102.685 23.7006 100.361C24.6157 96.3268 25.4986 92.2795 26.2913 88.2132C26.7553 85.8257 26.4975 84.0829 23.1592 84.2553C20.7038 84.383 20.5298 82.8445 22.4761 80.2528C23.3268 80.8464 24.171 81.4337 25.0153 82.021C25.5631 81.0763 26.4202 80.1762 26.5878 79.1675C26.9744 76.8694 26.8198 74.4756 27.258 72.1902C27.9411 68.5707 28.8112 64.9703 29.823 61.421C30.8928 57.6674 32.2268 53.9968 33.4126 50.2752C33.8444 48.9091 34.1795 47.5175 34.5598 46.1322C34.9335 46.1322 35.3073 46.1322 35.6747 46.1322C36.0549 48.3154 36.6543 50.4795 36.7767 52.6754C37.202 59.9911 37.6209 67.3131 37.7047 74.6415C37.7434 77.7504 38.6199 79.2697 41.9066 79.0846C42.7573 79.0335 43.6402 79.474 44.4974 80.3421C43.9624 80.5273 43.434 80.789 42.8797 80.8911C40.057 81.4082 39.651 82.9977 40.3084 85.5703C41.9646 92.0561 43.4082 98.593 44.8776 105.123C45.116 106.19 45.0774 107.313 45.1676 108.411C44.7938 108.532 44.4265 108.654 44.0527 108.775C43.4662 107.345 42.7186 105.96 42.3191 104.485C40.7079 98.5291 39.245 92.5349 37.6274 86.5853C37.1956 84.983 37.3632 82.6786 34.6049 82.902C31.9303 83.119 29.3461 83.5978 28.824 86.8598C28.07 91.571 27.1936 96.2757 26.7553 101.019C26.3686 105.2 26.6006 105.226 21.7607 107.785ZM34.9593 72.0051C34.4309 70.6262 33.6962 69.6878 33.0968 69.7644C32.4201 69.8474 32.1044 71.2199 31.8272 72.4647C31.6983 73.0265 31.3052 74.9671 31.8272 77.5653C32.1044 78.9441 32.259 79.6463 32.9099 80.0166C33.6962 80.4698 34.824 80.24 35.4749 79.6719C36.1322 79.1037 36.6607 77.8653 36.5254 77.029C36.2547 75.3182 35.5071 73.6776 34.9593 72.0051Z" fill="#FAFF00"/>
<path d="M228.274 55.8741C230.156 59.9252 230.446 64.125 229.402 68.5161C228.699 71.4694 228.119 74.4652 227.61 77.461C226.85 81.9442 224.962 85.2516 220.818 86.8947C214.779 89.2886 214.057 93.1768 218.279 98.701C221.03 102.306 223.64 106.038 226.27 109.757C226.895 110.642 227.34 111.697 227.862 112.667C227.617 112.908 227.372 113.156 227.127 113.397C224.066 109.849 221.011 106.3 217.518 102.256C216.609 107.363 215.888 111.442 215.159 115.522C214.844 115.5 214.528 115.479 214.212 115.458C214.102 114.643 213.928 113.836 213.903 113.014C213.793 109.594 213.677 106.173 213.671 102.752C213.664 99.5013 213.232 96.4771 211.273 93.8354C209.894 91.9728 209.772 90.1314 211.66 88.2545C212.504 87.4188 213.11 85.8536 213.168 84.5788C213.555 75.5063 213.799 66.4268 214.019 57.3472C214.051 56.0795 214.032 54.5426 213.432 53.5723C211.628 50.6615 213.722 48.4235 214.27 45.9517C214.341 45.6401 215.088 45.1302 216.016 44.7973C219.219 43.657 222.751 47.0424 224.04 48.2747C224.949 49.1459 227.449 51.6034 228.268 55.5837C228.371 56.0795 228.429 56.5044 228.461 56.8089C227.488 54.925 226.483 53.4377 225.645 52.3329C225.206 51.7522 224.317 50.6261 223.054 49.3512C222.313 48.6076 221.945 48.2322 221.61 48.0127C221.108 47.6798 219.374 46.7379 215.81 48.5368C217.196 48.7705 219.696 49.4008 222.229 51.3839C225.787 54.1672 227.191 57.8925 227.662 59.3586C227.862 58.2042 228.068 57.0356 228.274 55.8741ZM216.654 83.0632C217.176 83.2615 217.705 83.4598 218.227 83.6652C220.051 80.6481 222.145 77.7868 223.64 74.5856C226.45 68.5585 225.039 59.741 220.831 56.0441C219.973 55.2933 218.588 55.2721 217.441 54.9109C217.286 56.0865 216.996 57.2622 217.002 58.4308C217.022 62.0357 217.28 65.6406 217.222 69.2384C217.151 73.8491 216.854 78.4526 216.654 83.0632ZM226.244 78.6084C226.038 78.3109 225.477 78.2755 224.362 78.658C222.957 80.5277 221.559 82.3974 220.154 84.2672C220.347 84.6284 220.611 84.9542 220.972 85.0816C223.041 85.797 227.063 79.7699 226.244 78.6084Z" fill="#FAFF00"/>
<path d="M3.28157 104.754C2.80467 102.73 2.18599 101.173 1.68975 100.1C0.826176 98.23 0.123712 97.3682 0.0141539 95.8362C-0.0567369 94.8403 0.130157 93.7104 0.768174 92.3443C2.22466 95.3063 3.66181 97.4768 4.36427 99.8579C5.26652 102.909 7.10968 103.605 9.91309 103.101C12.8905 102.571 14.5081 100.809 14.289 97.8279C13.9152 92.6443 12.4909 87.8502 8.8175 83.8605C5.16985 79.9026 0.76173 76.3086 0.613503 70.2761C0.549057 67.7418 0.420165 65.1692 0.774619 62.6731C1.79931 55.5107 4.66072 53.1296 11.9431 53.1807C12.9549 53.1871 14.2568 53.4488 14.9012 54.0999C15.6037 54.8085 16.2997 56.4619 15.9324 57.0747C15.0623 58.5365 14.0054 57.8599 12.9098 56.7236C10.8798 54.6042 7.31591 55.2617 5.45986 57.8918C1.73487 63.1519 2.86912 69.7398 8.23749 73.27C11.8787 75.6639 14.1601 78.8429 15.5328 82.9987C17.724 89.6313 19.3802 96.2766 18.4973 103.305C18.2202 105.533 17.3244 107.129 15.9517 107.991C14.3341 109.006 12.4265 108.635 10.7122 108.31C9.15907 108.016 6.31054 107.218 3.28157 104.754Z" fill="#FAFF00"/>
<path d="M154.953 71.4306C155.159 71.2008 156.842 72.3881 156.977 72.4839C159.948 74.5905 161.533 77.2461 161.946 77.961C168.461 89.1962 166.94 101.708 166.94 101.715C166.786 104.849 165.883 106.917 164.304 107.919C162.435 109.107 159.8 108.315 157.17 107.575C154.863 106.93 153.084 106.024 151.905 105.334C151.628 104.766 151.26 104.006 150.848 103.113C150.584 102.532 150.146 100.853 149.185 99.2952C148.051 97.4439 147.69 95.1266 146.994 93.0137C147.523 92.7775 148.051 92.5477 148.586 92.3115C149.759 94.6096 151.396 96.7992 151.995 99.2313C152.93 103.017 155.301 103.132 158.388 102.653C161.295 102.2 162.577 100.348 162.384 97.112C161.997 90.6006 159.787 84.9192 154.715 80.5017C146.543 73.384 146.723 63.6936 149.392 56.2758C151.312 50.9391 156.983 50.4795 161.52 50.9901C162.249 51.0731 162.887 51.9222 163.563 52.4201C163.467 52.752 163.37 53.084 163.273 53.4159C161.965 53.4159 160.657 53.5053 159.361 53.3968C155.108 53.0521 152.93 54.5011 151.828 58.5803C151.512 59.7421 149.617 65.315 152.047 68.0153C152.504 68.5196 153.465 69.324 155.256 71.2901C155.514 71.571 155.72 71.8072 155.855 71.9604C155.617 72.0434 155.353 72.1136 155.05 72.1455C153.703 72.3115 152.62 71.7306 152.143 71.4306C152.955 75.1395 157.351 79.3463 161.649 80.1442C160.805 78.925 159.555 77.2141 157.918 75.2352C156.165 73.1158 154.753 71.654 154.953 71.4306Z" fill="#FAFF00"/>
<path d="M129.01 74.2995C125.653 74.8549 122.302 75.423 118.944 75.972C116.972 76.2976 116.282 77.4339 116.514 79.3681C117.152 84.641 117.591 89.9394 118.332 95.1995C119.073 100.453 120.484 101.462 125.769 101.072C127.444 100.951 129.114 100.747 130.789 100.575C130.989 100.913 131.189 101.251 131.388 101.59C130.209 102.458 129.152 103.664 127.831 104.111C126.039 104.724 123.99 104.577 122.147 105.081C120.336 105.579 118.628 106.479 116.888 107.226C115.973 107.622 115.084 108.082 114.181 108.509C113.672 107.405 112.751 106.313 112.731 105.203C112.66 101.277 112.834 97.3444 113.034 93.4185C113.369 86.8497 113.769 80.3001 110.875 74.0825C110.63 73.559 110.514 72.7036 110.779 72.2631C113.949 66.9583 112.416 61.2194 112.235 55.6593C112.171 53.6676 112.3 52.3717 114.407 52.3972C118.042 52.4419 121.676 52.7547 125.311 52.9973C125.679 53.0228 126.027 53.3548 126.536 54.4655C124.054 54.9954 121.593 55.8316 119.092 55.9784C116.418 56.138 115.522 57.2169 115.586 59.7256C115.651 62.2727 115.438 64.8262 115.348 67.3732C115.193 71.7588 115.225 71.829 119.479 72.4865C121.49 72.7993 123.526 72.9653 125.543 73.2462C126.735 73.4122 127.921 73.6803 129.107 73.8973C129.081 74.0378 129.049 74.1718 129.01 74.2995Z" fill="#FAFF00"/>
<path d="M204.456 54.9646C202.194 55.5898 199.958 56.5887 197.67 56.7612C194.454 57.0055 193.01 58.3135 193.287 62.0863C193.5 65.0543 193.339 68.0725 193.139 71.0549C192.959 73.7929 194.029 75.0289 196.362 75.3092C199.964 75.7476 203.554 76.2578 207.208 77.5226C206.596 77.7166 205.996 78.0257 205.371 78.0903C203.128 78.3275 200.86 78.3562 198.636 78.7084C194.609 79.3408 194.157 80.1313 194.564 84.5724C195.028 89.6891 195.376 94.813 195.865 99.9297C196.548 107.044 198.753 108.805 205.062 107.641C206.267 107.418 207.562 107.777 208.813 107.863C207.743 108.949 206.815 110.393 205.558 111.011C204.134 111.715 202.368 111.485 200.847 112.01C198.649 112.772 196.536 113.85 194.39 114.791C193.545 115.165 192.282 116.099 191.934 115.783C191.219 115.129 190.639 113.821 190.619 112.765C190.542 108.467 190.768 104.155 190.742 99.8507C190.697 93.8932 190.568 87.9357 190.355 81.9782C190.329 81.1877 189.363 80.4834 189.214 79.657C188.957 78.2197 188.783 76.6746 188.976 75.2445C189.163 73.8576 190.246 72.5568 190.259 71.2058C190.31 65.9741 190.039 60.7353 190.046 55.5036C190.046 54.6915 190.89 53.1896 191.348 53.1824C195.659 53.1536 199.964 53.3836 204.276 53.5417C204.334 54.016 204.398 54.4903 204.456 54.9646Z" fill="#FAFF00"/>
<path d="M168.375 53.4072C168.35 53.0816 168.324 52.6092 168.35 52.0411C168.408 50.6686 168.408 49.9536 168.846 49.4429C169.684 48.4598 171.346 48.5109 172.841 48.3258C173.479 48.2492 174.137 48.2556 174.762 48.1151C178.945 47.1831 182.837 47.7895 186.42 50.1898C186.336 50.3685 186.266 50.7005 186.156 50.7133C181.252 51.3261 180.994 54.5498 180.884 58.6354C180.581 70.5153 180.059 82.408 179.041 94.2497C178.629 99.031 176.715 103.685 175.477 108.396C175.013 108.358 174.556 108.313 174.092 108.275C174.027 106.832 173.873 105.389 173.911 103.946C174.356 88.664 174.936 73.3816 175.245 58.0991C175.297 55.6159 175.187 54.3009 174.478 53.7072C173.679 53.0433 172.403 54.0519 169.832 53.7072C169.22 53.6306 168.717 53.5029 168.375 53.4072ZM177.701 66.6851C179.879 63.7104 180.117 55.0094 177.868 52.5517C176.057 57.4161 177.9 61.8846 177.701 66.6851Z" fill="#FAFF00"/>
<path d="M132.831 106.202C133.63 105.934 134.274 105.64 134.957 105.5C137.058 105.059 137.522 103.789 137.432 101.772C136.859 88.8514 136.401 75.9182 135.931 62.9913C135.847 60.5974 135.898 60.5974 131.974 59.1675C132.238 58.7909 133.72 56.7736 136.453 56.3778C140.126 55.8416 142.575 58.7653 142.691 58.9058C141.55 59.3143 140.945 59.6207 140.307 59.7484C138.16 60.1825 137.181 61.3699 137.477 63.585C138.586 71.9859 139.733 80.3803 140.719 88.794C141.086 91.9347 141.151 95.1202 141.202 98.2865C141.254 101.21 140.223 104.434 144.573 105.704C138.173 109.285 136.466 109.343 132.831 106.202Z" fill="#FAFF00"/>
</mask>
<g mask="url(#mask0)">
<rect x="-145.5" y="-134.5" width="425.239" height="630.598" fill="#FAFF00" stroke="white" stroke-width="5"/>
</g>
</svg>
